#!OML:ASF F:\VICON\USERDATA\INSTALL\rory3\rory3.ASF
:FULLY-SPECIFIED
:DEGREES
73
root -0.20672172435928376 17.57068028946019 39.54103522096463 3.343715188238798 2.0897372321754015 1.1799150830370375
lfemur 4.757424682204114 -2.421807634760607 -27.46879715642335
ltibia 32.684384716075485
lfoot -9.96398860400287 -3.1977063474280936
ltoes -24.44830514734763
rfemur -45.817561045466874 -6.587331647687517 21.530298767891832
rtibia 99.13707934478924
rfoot 5.367912505570116 -6.179463683519659
rtoes 2.349323800352805
lowerback 15.100035805251556 -0.5961793731587773 -2.5925066074261975
upperback -0.9270604666332851 -1.2259175420584665 0.013887513130280027
thorax -9.40988293096444 -0.45159216309437655 1.991808479249591
lowerneck -20.043294863002902 -3.6199066636824195 -2.1561868434859828
upperneck 16.60165028389988 -5.087605557804756 3.526318074908242
head 8.691237654384661 -2.141711668346292 0.8922673324981417
lclavicle -6.154306947430476e-16 -5.425002073900829e-16
lhumerus -35.20069705206995 -8.017289519873328 93.59579361560253
lradius 113.7237446044283
lwrist 44.88258082060921
lhand -23.040061031003518 2.169353845357218
lfingers 7.125020000000058
lthumb 3.4040450314755244 32.06945655698509
rclavicle -6.154306947430476e-16 -5.425002073900829e-16
rhumerus -58.72125341130578 11.285761599363887 -101.60153817932881
rradius 105.0597345090744
rwrist -27.46499015461704
rhand -19.486155709015986 -9.026562048696842
rfingers 7.125020000000058
rthumb 6.835196788283886 9.405851680601957
74
root -0.2015674447603662 17.781256938436577 40.427666743984425 3.6400023032809554 0.7861232045469082 0.7226571628614331
lfemur 8.360534945438197 -2.0258197521716736 -27.01175721939665
ltibia 29.30993517501421
lfoot -1.9386404265202821 -6.020975217716606
ltoes -26.225565020938564
rfemur -46.11480216957658 -4.886626511708304 22.897447703621907
rtibia 87.70486125366486
rfoot 4.320111326861788 -5.8242332467788565
rtoes -0.9826126643720983
lowerback 14.18219013114194 -0.8471579809845179 -2.405638417423516
upperback -1.202722244951938 -1.4837630675975162 0.4077056660986371
thorax -9.258962750609358 -0.5738960607658085 2.311433557711476
lowerneck -19.78477981043125 -3.2177784617366463 -2.291934936029633
upperneck 17.202829065799364 -4.476549960962799 3.277680935349922
head 8.819802255843975 -1.8819218520094532 0.9047630596319082
lclavicle -6.970832254292598e-16 -6.057239991350298e-16
lhumerus -34.73976427951351 -7.3387903363990405 92.61009054232302
lradius 114.05079408697212
lwrist 45.198876725238286
lhand -22.890620628368964 2.156197297517547
lfingers 7.125020000000058
lthumb 3.5482971013679423 32.049299042728315
rclavicle -6.970832254292598e-16 -6.057239991350298e-16
rhumerus -60.91677490175387 11.086346071105861 -100.88422492295422
rradius 105.31956839792605
rwrist -28.217676503250228
rhand -19.22910572756258 -9.650545130905268
rfingers 7.125020000000058
rthumb 7.08345405839867 8.783095526313973
75
root -0.2020344512568395 17.97891941643971 41.44140969671768 3.93146837028885 -0.6077428803124025 0.36341883688859467
lfemur 11.759539188687132 -1.8237363631054697 -26.76000237691477
ltibia 26.324173277784855
lfoot 6.2518983194003415 -8.452768335974854
ltoes -26.00339727811656
rfemur -45.984944080286205 -3.085266332701687 24.02016343474686
rtibia 75.86713027146229
rfoot 3.7852938543950683 -5.1247742747847065
rtoes -4.489398430583194
lowerback 13.286396888385937 -1.0250272397366356 -2.2318824917828737
upperback -1.4886837020658268 -1.6528865072697916 0.7437076127100316
thorax -9.131353997170137 -0.6542892430395851 2.559769604185145
lowerneck -19.48582836177031 -2.8689037795442194 -2.445227900629994
upperneck 17.81035738698823 -3.9400881938062167 3.0733225847331473
head 8.94819396694067 -1.655618251133388 0.9262597686615552
lclavicle -7.564479519148007e-16 -6.516903079614019e-16
lhumerus -34.48390785334219 -7.115708625026555 91.82551497580815
lradius 114.32958688282756
lwrist 45.098461227222515
lhand -22.73059913661261 2.1900951205456547
lfingers 7.125020000000057
lthumb 3.7027857127840935 32.076328667986985
rclavicle -7.564479519148007e-16 -6.516903079614019e-16
rhumerus -63.0499345206383 10.649514142069584 -100.02331908469212
rradius 105.50058633956654
rwrist -28.669176059226388
rhand -19.050995700947215 -10.292177689749114
rfingers 7.125020000000057
rthumb 7.255413227327539 8.322127003735917
76
root -0.19356780480331803 18.15391527013466 42.74544718809525 4.2595713877346 -1.7835645918086465 0.21913841157611502
lfemur 14.95220079127051 -1.948217094495241 -26.697414849280843
ltibia 24.340771465031754
lfoot 13.714528328469878 -10.292604239996667
ltoes -24.053332038316803
rfemur -45.29638003980098 -1.4658548926759312 24.905445879085892
rtibia 64.8483964819436
rfoot 4.030330211675739 -4.328123470625798
rtoes -7.8334220483316255
lowerback 12.556173035281802 -1.151910317059123 -2.0680902725874564
upperback -1.7584585781737128 -1.769417522290028 1.0024974609083133
thorax -9.033171663816383 -0.709884751355193 2.7820174158343356
lowerneck -19.175599634931185 -2.586902825540027 -2.5786598953638262
upperneck 18.367476620480776 -3.503298905032664 2.9575308845465833
head 9.065225921531791 -1.4718836178403987 0.9604762342752172
lclavicle -5.092487686963943e-16 -4.602832973935391e-16
lhumerus -34.202909492838536 -7.263764254944959 91.3465399034874
lradius 115.17045588160238
lwrist 44.777073132176426
lhand -22.53062922873347 2.3192384068611087
lfingers 7.125020000000058
lthumb 3.8958770867322636 32.199964753406306
rclavicle -5.092487686963943e-16 -4.602832973935391e-16
rhumerus -64.80890773779083 10.16323911637286 -98.93964686162161
rradius 106.25016029729052
rwrist -28.572855809082363
rhand -18.917804220872668 -10.563030538321872
rfingers 7.125020000000058
rthumb 7.383965633514579 8.185161517924794
